<svg width="30" height="27" viewBox="0 0 30 27" fill="none" xmlns="http://www.w3.org/2000/svg">
<path d="M11.6339 14.6778V14.6806L11.9519 14.4946L11.6339 14.6778Z" fill="#5747FF"/>
<path d="M13.2636 7.92834L10.153 9.7265C10.0965 9.75919 10.0323 9.77641 9.96702 9.77643C9.9017 9.77644 9.83752 9.75925 9.78096 9.72659L6.62057 7.90176V19.4683L3.51314 17.6733C3.45663 17.6406 3.4097 17.5937 3.37707 17.5371C3.34445 17.4806 3.32727 17.4165 3.32727 17.3512V2.73922C3.32727 2.68386 3.34184 2.62948 3.36952 2.58153C3.3972 2.53359 3.43701 2.49377 3.48495 2.46609C3.53289 2.43841 3.58728 2.42383 3.64264 2.42383C3.698 2.42382 3.75238 2.43839 3.80033 2.46607L13.2636 7.92834Z" fill="#5747FF"/>
<path d="M11.9519 14.4946L11.634 14.6806V14.6778L11.9519 14.4946Z" fill="#5747FF"/>
<path opacity="0.8" d="M11.9519 14.4946L11.634 14.6806V14.6778L11.9519 14.4946Z" fill="#5747FF"/>
<path d="M26.6726 2.74093V17.3881C26.6726 17.4432 26.6583 17.4975 26.631 17.5454C26.6036 17.5934 26.5643 17.6334 26.5169 17.6616L23.3759 19.4747V4.09709L26.1996 2.46775C26.2476 2.44009 26.302 2.42553 26.3573 2.42554C26.4127 2.42555 26.467 2.44013 26.515 2.46781C26.5629 2.49549 26.6027 2.53531 26.6304 2.58325C26.6581 2.63119 26.6726 2.68557 26.6726 2.74093Z" fill="#5747FF"/>
<path opacity="0.8" d="M11.9519 14.4946L11.634 14.6806V14.6778L11.9519 14.4946Z" fill="#5747FF"/>
<path opacity="0.8" d="M11.9519 14.4946L11.634 14.6806V14.6778L11.9519 14.4946Z" fill="#5747FF"/>
<path d="M21.6595 14.5181V6.45692C21.6595 6.3184 21.623 6.18231 21.5537 6.06234C21.4845 5.94237 21.3849 5.84275 21.2649 5.77348C21.1449 5.70421 21.0089 5.66774 20.8703 5.66772C20.7318 5.66771 20.5957 5.70416 20.4757 5.77341L8.65245 12.5978C8.55739 12.6527 8.47845 12.7316 8.42356 12.8267C8.36868 12.9217 8.33978 13.0296 8.33978 13.1393V20.4609L14.5563 24.0501C14.6922 24.1286 14.8464 24.1699 15.0033 24.1699C15.1603 24.1699 15.3144 24.1286 15.4503 24.0501L21.6595 20.4646V16.6629L15.2573 20.3607C15.1801 20.4052 15.0925 20.4287 15.0034 20.4287C14.9142 20.4286 14.8266 20.4051 14.7494 20.3605L13.6371 19.717C13.6016 19.6964 13.5722 19.6669 13.5517 19.6314C13.5312 19.5958 13.5204 19.5556 13.5204 19.5145C13.5205 19.4735 13.5313 19.4332 13.5518 19.3977C13.5723 19.3622 13.6018 19.3327 13.6373 19.3122L21.5172 14.7645C21.5604 14.7395 21.5964 14.7036 21.6213 14.6604C21.6463 14.6171 21.6595 14.568 21.6595 14.5181ZM11.6339 16.431V14.8336C11.6339 14.7862 11.6464 14.7397 11.6701 14.6987C11.6937 14.6577 11.7278 14.6237 11.7688 14.6L18.1889 10.8956C18.2069 10.8852 18.2273 10.8798 18.248 10.8798C18.2688 10.8798 18.2892 10.8853 18.3072 10.8956C18.3251 10.906 18.3401 10.921 18.3504 10.9389C18.3608 10.9569 18.3663 10.9773 18.3663 10.9981V12.6645C18.3663 12.6991 18.3572 12.7331 18.3399 12.7631C18.3225 12.793 18.2977 12.8179 18.2677 12.8352L11.8347 16.547C11.8144 16.5587 11.7913 16.5649 11.7678 16.5649C11.7443 16.5649 11.7212 16.5587 11.7009 16.547C11.6805 16.5352 11.6636 16.5183 11.6519 16.498C11.6401 16.4776 11.6339 16.4545 11.6339 16.431Z" fill="#5747FF"/>
<path opacity="0.1" d="M26.5964 17.6157L23.3759 19.4747V19.4715L26.5964 17.6157Z" fill="#5747FF"/>
<path opacity="0.1" d="M26.6727 17.5693V17.5727L26.5996 17.6159L26.6727 17.5693Z" fill="#5747FF"/>
</svg>
