<svg width="40" height="40" viewBox="0 0 40 40" fill="none" xmlns="http://www.w3.org/2000/svg">
<circle cx="20" cy="20" r="19.5" stroke="white"/>
<path d="M25 11.5059C25 11.3733 24.9473 11.2461 24.8536 11.1524C24.7598 11.0586 24.6326 11.0059 24.5 11.0059H22C20.7411 10.9432 19.5086 11.3813 18.5717 12.2245C17.6348 13.0677 17.0698 14.2474 17 15.5059V18.2059H14.5C14.3674 18.2059 14.2402 18.2586 14.1464 18.3524C14.0527 18.4461 14 18.5733 14 18.7059V21.3059C14 21.4385 14.0527 21.5657 14.1464 21.6595C14.2402 21.7532 14.3674 21.8059 14.5 21.8059H17V28.5059C17 28.6385 17.0527 28.7657 17.1464 28.8595C17.2402 28.9532 17.3674 29.0059 17.5 29.0059H20.5C20.6326 29.0059 20.7598 28.9532 20.8536 28.8595C20.9473 28.7657 21 28.6385 21 28.5059V21.8059H23.62C23.7312 21.8075 23.8397 21.772 23.9285 21.705C24.0172 21.638 24.0811 21.5433 24.11 21.4359L24.83 18.8359C24.8499 18.762 24.8526 18.6846 24.8378 18.6095C24.8231 18.5344 24.7913 18.4637 24.7449 18.4029C24.6985 18.342 24.6388 18.2926 24.5704 18.2585C24.5019 18.2243 24.4265 18.2063 24.35 18.2059H21V15.5059C21.0249 15.2584 21.1411 15.029 21.326 14.8626C21.5109 14.6962 21.7512 14.6047 22 14.6059H24.5C24.6326 14.6059 24.7598 14.5532 24.8536 14.4595C24.9473 14.3657 25 14.2385 25 14.1059V11.5059Z" fill="white"/>
</svg>
