<svg width="40" height="40" viewBox="0 0 40 40" fill="none" xmlns="http://www.w3.org/2000/svg">
<circle cx="20" cy="20" r="19.5" stroke="white"/>
<path d="M20.9252 11C21.9377 11.0027 22.4515 11.0081 22.8952 11.0207L23.0698 11.027C23.2714 11.0342 23.4703 11.0432 23.7106 11.054C24.6681 11.099 25.3215 11.2502 25.8948 11.4725C26.4887 11.7011 26.9891 12.0107 27.4895 12.5102C27.9473 12.9599 28.3014 13.5042 28.5271 14.1049C28.7494 14.6782 28.9006 15.3316 28.9456 16.2901C28.9564 16.5295 28.9654 16.7284 28.9726 16.9309L28.978 17.1055C28.9915 17.5482 28.9969 18.0621 28.9987 19.0746L28.9996 19.746V20.925C29.0018 21.5814 28.9949 22.2379 28.9789 22.8941L28.9735 23.0687C28.9663 23.2712 28.9573 23.4701 28.9465 23.7095C28.9015 24.668 28.7485 25.3205 28.5271 25.8946C28.3014 26.4954 27.9473 27.0397 27.4895 27.4894C27.0397 27.9472 26.4955 28.3013 25.8948 28.5271C25.3215 28.7494 24.6681 28.9006 23.7106 28.9456L23.0698 28.9726L22.8952 28.978C22.4515 28.9906 21.9377 28.9969 20.9252 28.9987L20.2538 28.9996H19.0758C18.4191 29.0019 17.7623 28.995 17.1058 28.9789L16.9312 28.9735C16.7176 28.9654 16.504 28.9561 16.2904 28.9456C15.3329 28.9006 14.6795 28.7494 14.1054 28.5271C13.5049 28.3012 12.961 27.9471 12.5115 27.4894C12.0534 27.0397 11.699 26.4955 11.473 25.8946C11.2507 25.3214 11.0995 24.668 11.0545 23.7095L11.0275 23.0687L11.023 22.8941C11.0064 22.2379 10.9989 21.5814 11.0005 20.925V19.0746C10.998 18.4182 11.0046 17.7617 11.0203 17.1055L11.0266 16.9309C11.0338 16.7284 11.0428 16.5295 11.0536 16.2901C11.0986 15.3316 11.2498 14.6791 11.4721 14.1049C11.6986 13.5039 12.0537 12.9596 12.5124 12.5102C12.9617 12.0526 13.5053 11.6984 14.1054 11.4725C14.6795 11.2502 15.332 11.099 16.2904 11.054C16.5298 11.0432 16.7296 11.0342 16.9312 11.027L17.1058 11.0216C17.762 11.0056 18.4185 10.9987 19.0749 11.0009L20.9252 11ZM20.0001 15.4999C18.8066 15.4999 17.6621 15.974 16.8182 16.8179C15.9744 17.6618 15.5003 18.8063 15.5003 19.9998C15.5003 21.1932 15.9744 22.3378 16.8182 23.1817C17.6621 24.0256 18.8066 24.4997 20.0001 24.4997C21.1935 24.4997 22.338 24.0256 23.1819 23.1817C24.0257 22.3378 24.4998 21.1932 24.4998 19.9998C24.4998 18.8063 24.0257 17.6618 23.1819 16.8179C22.338 15.974 21.1935 15.4999 20.0001 15.4999ZM20.0001 17.2998C20.3546 17.2998 20.7057 17.3696 21.0333 17.5052C21.3609 17.6408 21.6585 17.8397 21.9093 18.0903C22.16 18.341 22.3589 18.6386 22.4947 18.9661C22.6304 19.2937 22.7003 19.6448 22.7004 19.9993C22.7004 20.3539 22.6307 20.705 22.495 21.0326C22.3594 21.3602 22.1606 21.6579 21.9099 21.9086C21.6593 22.1594 21.3617 22.3583 21.0341 22.494C20.7066 22.6298 20.3555 22.6997 20.001 22.6997C19.2849 22.6997 18.5982 22.4153 18.0919 21.9089C17.5855 21.4026 17.3011 20.7158 17.3011 19.9998C17.3011 19.2837 17.5855 18.597 18.0919 18.0906C18.5982 17.5843 19.2849 17.2998 20.001 17.2998M24.7257 14.1499C24.4274 14.1499 24.1412 14.2684 23.9303 14.4794C23.7193 14.6904 23.6008 14.9765 23.6008 15.2749C23.6008 15.5733 23.7193 15.8594 23.9303 16.0704C24.1412 16.2813 24.4274 16.3999 24.7257 16.3999C25.0241 16.3999 25.3102 16.2813 25.5212 16.0704C25.7321 15.8594 25.8507 15.5733 25.8507 15.2749C25.8507 14.9765 25.7321 14.6904 25.5212 14.4794C25.3102 14.2684 25.0241 14.1499 24.7257 14.1499Z" fill="white"/>
</svg>
