<svg width="96" height="97" viewBox="0 0 96 97" fill="none" xmlns="http://www.w3.org/2000/svg">
<g filter="url(#filter0_d_94_1955)">
<rect x="24" y="8.5" width="48" height="48" rx="8" fill="#FF692E"/>
<rect x="24.5" y="9" width="47" height="47" rx="7.5" stroke="#FF692E"/>
</g>
<path d="M60.5938 37.6875H59.625V26.4375C59.625 25.6916 59.3188 24.9762 58.7738 24.4488C58.2288 23.9213 57.4895 23.625 56.7188 23.625H39.2812C38.5105 23.625 37.7712 23.9213 37.2262 24.4488C36.6812 24.9762 36.375 25.6916 36.375 26.4375V37.6875H35.4062C35.1493 37.6875 34.9029 37.7863 34.7212 37.9621C34.5396 38.1379 34.4375 38.3764 34.4375 38.625V40.5C34.4375 41.2459 34.7437 41.9613 35.2887 42.4887C35.8337 43.0162 36.573 43.3125 37.3438 43.3125H58.6562C59.427 43.3125 60.1663 43.0162 60.7113 42.4887C61.2563 41.9613 61.5625 41.2459 61.5625 40.5V38.625C61.5625 38.3764 61.4604 38.1379 61.2788 37.9621C61.0971 37.7863 60.8507 37.6875 60.5938 37.6875ZM38.3125 26.4375C38.3125 26.1889 38.4146 25.9504 38.5962 25.7746C38.7779 25.5988 39.0243 25.5 39.2812 25.5H56.7188C56.9757 25.5 57.2221 25.5988 57.4038 25.7746C57.5854 25.9504 57.6875 26.1889 57.6875 26.4375V37.6875H38.3125V26.4375ZM59.625 40.5C59.625 40.7486 59.5229 40.9871 59.3413 41.1629C59.1596 41.3387 58.9132 41.4375 58.6562 41.4375H37.3438C37.0868 41.4375 36.8404 41.3387 36.6587 41.1629C36.4771 40.9871 36.375 40.7486 36.375 40.5V39.5625H59.625V40.5ZM50.9062 28.3125C50.9062 28.5611 50.8042 28.7996 50.6225 28.9754C50.4408 29.1512 50.1944 29.25 49.9375 29.25H46.0625C45.8056 29.25 45.5592 29.1512 45.3775 28.9754C45.1958 28.7996 45.0938 28.5611 45.0938 28.3125C45.0938 28.0639 45.1958 27.8254 45.3775 27.6496C45.5592 27.4738 45.8056 27.375 46.0625 27.375H49.9375C50.1944 27.375 50.4408 27.4738 50.6225 27.6496C50.8042 27.8254 50.9062 28.0639 50.9062 28.3125Z" fill="white"/>
<defs>
<filter id="filter0_d_94_1955" x="0" y="0.5" width="96" height="96" filterUnits="userSpaceOnUse" color-interpolation-filters="sRGB">
<feFlood flood-opacity="0" result="BackgroundImageFix"/>
<feColorMatrix in="SourceAlpha" type="matrix" values="0 0 0 0 0 0 0 0 0 0 0 0 0 0 0 0 0 0 127 0" result="hardAlpha"/>
<feOffset dy="16"/>
<feGaussianBlur stdDeviation="12"/>
<feComposite in2="hardAlpha" operator="out"/>
<feColorMatrix type="matrix" values="0 0 0 0 0.976471 0 0 0 0 0.411765 0 0 0 0 0.207843 0 0 0 0.1 0"/>
<feBlend mode="normal" in2="BackgroundImageFix" result="effect1_dropShadow_94_1955"/>
<feBlend mode="normal" in="SourceGraphic" in2="effect1_dropShadow_94_1955" result="shape"/>
</filter>
</defs>
</svg>
