<svg width="96" height="97" viewBox="0 0 96 97" fill="none" xmlns="http://www.w3.org/2000/svg">
<g filter="url(#filter0_d_94_1990)">
<rect x="24" y="8.5" width="48" height="48" rx="8" fill="#FFC444"/>
<rect x="25.4976" y="9.99757" width="45.0049" height="45.0049" rx="6.50243" stroke="#FFC444" stroke-width="2.99515"/>
</g>
<g filter="url(#filter1_d_94_1990)">
<path d="M36.3125 26.925C36.3125 25.9005 36.7072 24.9179 37.4096 24.1934C38.1121 23.469 39.0649 23.062 40.0584 23.062H56.5404C57.5338 23.062 58.4866 23.469 59.1891 24.1934C59.8916 24.9179 60.2863 25.9005 60.2863 26.925V37.7413C60.2863 38.7658 59.8916 39.7484 59.1891 40.4728C58.4866 41.1972 57.5338 41.6042 56.5404 41.6042H40.0584C39.0649 41.6042 38.1121 41.1972 37.4096 40.4728C36.7072 39.7484 36.3125 38.7658 36.3125 37.7413V26.925ZM40.0584 24.6072C39.4623 24.6072 38.8906 24.8514 38.4692 25.2861C38.0477 25.7207 37.8109 26.3103 37.8109 26.925V28.9337H58.7879V26.925C58.7879 26.3103 58.5511 25.7207 58.1296 25.2861C57.7081 24.8514 57.1365 24.6072 56.5404 24.6072H40.0584ZM37.8109 37.7413C37.8109 38.356 38.0477 38.9455 38.4692 39.3802C38.8906 39.8149 39.4623 40.059 40.0584 40.059H56.5404C57.1365 40.059 57.7081 39.8149 58.1296 39.3802C58.5511 38.9455 58.7879 38.356 58.7879 37.7413V30.4789H37.8109V37.7413ZM52.6446 35.7325C52.4459 35.7325 52.2554 35.8139 52.1149 35.9588C51.9744 36.1037 51.8955 36.3002 51.8955 36.5051C51.8955 36.71 51.9744 36.9065 52.1149 37.0514C52.2554 37.1963 52.4459 37.2777 52.6446 37.2777H55.941C56.1397 37.2777 56.3303 37.1963 56.4708 37.0514C56.6113 36.9065 56.6902 36.71 56.6902 36.5051C56.6902 36.3002 56.6113 36.1037 56.4708 35.9588C56.3303 35.8139 56.1397 35.7325 55.941 35.7325H52.6446Z" fill="white"/>
</g>
<defs>
<filter id="filter0_d_94_1990" x="0" y="0.5" width="96" height="96" filterUnits="userSpaceOnUse" color-interpolation-filters="sRGB">
<feFlood flood-opacity="0" result="BackgroundImageFix"/>
<feColorMatrix in="SourceAlpha" type="matrix" values="0 0 0 0 0 0 0 0 0 0 0 0 0 0 0 0 0 0 127 0" result="hardAlpha"/>
<feOffset dy="16"/>
<feGaussianBlur stdDeviation="12"/>
<feComposite in2="hardAlpha" operator="out"/>
<feColorMatrix type="matrix" values="0 0 0 0 1 0 0 0 0 0.768627 0 0 0 0 0.266667 0 0 0 0.1 0"/>
<feBlend mode="normal" in2="BackgroundImageFix" result="effect1_dropShadow_94_1990"/>
<feBlend mode="normal" in="SourceGraphic" in2="effect1_dropShadow_94_1990" result="shape"/>
</filter>
<filter id="filter1_d_94_1990" x="16.397" y="4.58603" width="63.2061" height="63.2061" filterUnits="userSpaceOnUse" color-interpolation-filters="sRGB">
<feFlood flood-opacity="0" result="BackgroundImageFix"/>
<feColorMatrix in="SourceAlpha" type="matrix" values="0 0 0 0 0 0 0 0 0 0 0 0 0 0 0 0 0 0 127 0" result="hardAlpha"/>
<feOffset dy="3.68957"/>
<feGaussianBlur stdDeviation="8.30152"/>
<feComposite in2="hardAlpha" operator="out"/>
<feColorMatrix type="matrix" values="0 0 0 0 0.4 0 0 0 0 0.427451 0 0 0 0 0.933333 0 0 0 0.2 0"/>
<feBlend mode="normal" in2="BackgroundImageFix" result="effect1_dropShadow_94_1990"/>
<feBlend mode="normal" in="SourceGraphic" in2="effect1_dropShadow_94_1990" result="shape"/>
</filter>
</defs>
</svg>
