<svg width="96" height="97" viewBox="0 0 96 97" fill="none" xmlns="http://www.w3.org/2000/svg">
<g filter="url(#filter0_d_94_1981)">
<path d="M24 16.5C24 12.0817 27.5817 8.5 32 8.5H64C68.4183 8.5 72 12.0817 72 16.5V48.5C72 52.9183 68.4183 56.5 64 56.5H32C27.5817 56.5 24 52.9183 24 48.5V16.5Z" fill="#A87FF8"/>
<path d="M24.5 16.5C24.5 12.3579 27.8579 9 32 9H64C68.1421 9 71.5 12.3579 71.5 16.5V48.5C71.5 52.6421 68.1421 56 64 56H32C27.8579 56 24.5 52.6421 24.5 48.5V16.5Z" stroke="#A87FF8"/>
</g>
<path d="M38.6496 41.4703H46.5078C46.6353 41.4703 46.7576 41.4197 46.8477 41.3295C46.9378 41.2394 46.9885 41.1171 46.9885 40.9897C46.9885 40.8622 46.9378 40.7399 46.8477 40.6498C46.7576 40.5597 46.6353 40.509 46.5078 40.509H38.6496C38.6282 40.509 38.6077 40.5005 38.5925 40.4854C38.5774 40.4703 38.5689 40.4498 38.5689 40.4284V24.1505C38.5689 24.1292 38.5774 24.1086 38.5925 24.0935C38.6077 24.0784 38.6282 24.0699 38.6496 24.0699H50.437C50.4583 24.0699 50.4789 24.0784 50.494 24.0935C50.5091 24.1086 50.5176 24.1292 50.5176 24.1505V26.9571C50.5176 27.0845 50.5682 27.2068 50.6584 27.2969C50.7485 27.3871 50.8708 27.4377 50.9983 27.4377C51.1257 27.4377 51.248 27.3871 51.3381 27.2969C51.4283 27.2068 51.4789 27.0845 51.4789 26.9571V24.1505C51.4789 23.5759 51.0116 23.1086 50.437 23.1086H38.6496C38.0749 23.1086 37.6076 23.5759 37.6076 24.1505V40.4284C37.6076 41.003 38.0749 41.4703 38.6496 41.4703Z" fill="white" stroke="white" stroke-width="0.4"/>
<path d="M47.9111 29.2026V40.4286C47.9111 40.8928 48.2889 41.2706 48.7531 41.2706H54.9274C55.3916 41.2706 55.7694 40.8928 55.7694 40.4286V29.2026C55.7694 28.7384 55.3916 28.3606 54.9274 28.3606H48.7531C48.2889 28.3606 47.9111 28.7384 47.9111 29.2026ZM55.2081 29.2026V40.4286C55.2081 40.5031 55.1785 40.5744 55.1259 40.6271C55.0732 40.6797 55.0019 40.7093 54.9274 40.7093H48.7531C48.6787 40.7093 48.6073 40.6797 48.5546 40.6271C48.502 40.5744 48.4724 40.5031 48.4724 40.4286V29.2026C48.4724 29.1281 48.502 29.0567 48.5546 29.0041C48.6073 28.9515 48.6787 28.9219 48.7531 28.9219H54.9274C55.0019 28.9219 55.0732 28.9515 55.1259 29.0041C55.1785 29.0567 55.2081 29.1281 55.2081 29.2026Z" fill="white" stroke="white"/>
<path d="M44.543 39.5862C44.853 39.5862 45.1043 39.3349 45.1043 39.0249C45.1043 38.7149 44.853 38.4636 44.543 38.4636C44.233 38.4636 43.9817 38.7149 43.9817 39.0249C43.9817 39.3349 44.233 39.5862 44.543 39.5862Z" fill="white" stroke="white" stroke-width="0.691794"/>
<path d="M51.8399 39.5862C52.1499 39.5862 52.4012 39.3349 52.4012 39.0249C52.4012 38.7149 52.1499 38.4636 51.8399 38.4636C51.5299 38.4636 51.2786 38.7149 51.2786 39.0249C51.2786 39.3349 51.5299 39.5862 51.8399 39.5862Z" fill="white" stroke="white" stroke-width="0.691794"/>
<defs>
<filter id="filter0_d_94_1981" x="0" y="0.5" width="96" height="96" filterUnits="userSpaceOnUse" color-interpolation-filters="sRGB">
<feFlood flood-opacity="0" result="BackgroundImageFix"/>
<feColorMatrix in="SourceAlpha" type="matrix" values="0 0 0 0 0 0 0 0 0 0 0 0 0 0 0 0 0 0 127 0" result="hardAlpha"/>
<feOffset dy="16"/>
<feGaussianBlur stdDeviation="12"/>
<feComposite in2="hardAlpha" operator="out"/>
<feColorMatrix type="matrix" values="0 0 0 0 0.654902 0 0 0 0 0.501961 0 0 0 0 0.972549 0 0 0 0.1 0"/>
<feBlend mode="normal" in2="BackgroundImageFix" result="effect1_dropShadow_94_1981"/>
<feBlend mode="normal" in="SourceGraphic" in2="effect1_dropShadow_94_1981" result="shape"/>
</filter>
</defs>
</svg>
