<svg width="32" height="29" viewBox="0 0 32 29" fill="none" xmlns="http://www.w3.org/2000/svg">
<path d="M7.81702 17.7222C7.50661 19.5077 8.78679 20.2837 10.1066 20.2452C11.4265 20.2067 14.3086 19.5337 16.7511 17.132C14.5884 17.7324 13.5609 18.6535 10.9994 18.6535C9.33058 18.6535 9.33058 17.3722 12.164 16.5576C14.9974 15.743 16.5109 15.5029 18.2862 15.3091C15.4098 14.8548 11.8536 15.2378 7.19619 16.4409C7.3514 13.8012 6.22642 9.18353 5.33369 6.27196C8.0504 5.88337 19.6547 3.98236 19.6547 3.98236L20.6245 14.5002L21.9058 15.0044L22.9152 0.56665C20.3923 0.56665 6.80874 3.20632 2.26805 4.91361C4.24724 8.13446 5.06293 12.9085 5.52855 17.9545L7.81702 17.7222ZM7.44769 23.8898L20.458 20.5738L20.3209 18.104L7.44769 22.2663V23.8898ZM29.0556 23.6383C27.9578 23.6383 27.4548 22.0148 27.4548 21.215C27.4548 21.215 29.6266 21.215 30.3131 21.215C30.3131 20.9182 30.3822 19.843 29.9472 19.6142C30.1296 19.1803 30.4729 18.0825 30.4729 17.0991C30.4729 15.2242 29.0091 14.7438 27.9114 14.7438C26.0817 14.7438 23.3843 15.5437 22.3556 15.7498C21.3269 15.956 20.8692 14.9262 20.8692 14.9262C20.8692 14.9262 19.955 14.9262 19.2684 14.9262C19.2684 16.1837 19.9312 17.1444 21.2351 17.1444C22.6989 17.1444 24.2079 16.0467 26.3797 16.0467C29.6266 16.0467 29.3524 18.6308 29.6266 19.4533C29.4668 19.3389 29.1462 19.1565 28.7123 19.1565C27.5001 19.1565 26.8374 20.1625 26.8374 20.1625L26.289 16.6868L22.3794 17.9216L25.5572 17.9669L25.5345 20.3676L4.59051 25.1008L4.97909 20.6417L0.771484 28.0271C0.771484 28.0271 24.6656 21.4642 26.4261 20.985C26.357 24.8493 27.8434 25.2832 28.5299 25.2832C29.3071 25.2832 30.8388 23.3392 31.2285 22.1508C30.474 23.2259 29.7648 23.4321 29.0556 23.6383Z" fill="#2A46FF"/>
</svg>
