<svg width="96" height="97" viewBox="0 0 96 97" fill="none" xmlns="http://www.w3.org/2000/svg">
<g filter="url(#filter0_d_94_1920)">
<rect x="24" y="8.5" width="48" height="48" rx="8" fill="#717BBC"/>
<rect x="24.5" y="9" width="47" height="47" rx="7.5" stroke="#717BBC"/>
</g>
<g filter="url(#filter1_d_94_1920)">
<path d="M47.5793 36.5791C46.7137 36.5791 45.8676 36.3276 45.1479 35.8566C44.4282 35.3855 43.8673 34.7159 43.536 33.9326C43.2048 33.1492 43.1181 32.2872 43.287 31.4556C43.4558 30.624 43.8727 29.8601 44.4847 29.2605C45.0968 28.661 45.8766 28.2527 46.7255 28.0873C47.5744 27.9218 48.4544 28.0067 49.2541 28.3312C50.0538 28.6557 50.7373 29.2052 51.2181 29.9102C51.699 30.6152 51.9557 31.4441 51.9557 32.292C51.9619 32.8567 51.853 33.4169 51.6353 33.9398C51.4176 34.4627 51.0954 34.9377 50.6878 35.3371C50.2802 35.7364 49.7952 36.0519 49.2614 36.2652C48.7276 36.4785 48.1557 36.5852 47.5793 36.5791ZM47.5793 29.4339C47.1937 29.4253 46.8104 29.4934 46.4525 29.634C46.0945 29.7745 45.7694 29.9848 45.4967 30.2519C45.224 30.519 45.0094 30.8375 44.8659 31.1882C44.7224 31.5388 44.6529 31.9143 44.6617 32.292C44.6529 32.6697 44.7224 33.0452 44.8659 33.3958C45.0094 33.7464 45.224 34.0649 45.4967 34.3321C45.7694 34.5992 46.0945 34.8094 46.4525 34.95C46.8104 35.0906 47.1937 35.1586 47.5793 35.15C47.9648 35.1586 48.3482 35.0906 48.7061 34.95C49.0641 34.8094 49.3892 34.5992 49.6619 34.3321C49.9346 34.0649 50.1492 33.7464 50.2927 33.3958C50.4362 33.0452 50.5057 32.6697 50.4969 32.292C50.5057 31.9143 50.4362 31.5388 50.2927 31.1882C50.1492 30.8375 49.9346 30.519 49.6619 30.2519C49.3892 29.9848 49.0641 29.7745 48.7061 29.634C48.3482 29.4934 47.9648 29.4253 47.5793 29.4339Z" fill="white"/>
<path d="M57.1819 28.7499L55.4787 25.8288C55.312 25.5424 55.05 25.3222 54.7376 25.2057C54.4251 25.0892 54.0815 25.0837 53.7654 25.19L52.0088 25.7781C51.7061 25.5763 51.3897 25.3954 51.0619 25.2365L50.6989 23.4366C50.6335 23.1125 50.4566 22.8209 50.1985 22.6114C49.9403 22.4019 49.6168 22.2875 49.283 22.2876H45.8766C45.5428 22.2875 45.2193 22.4019 44.9611 22.6114C44.7029 22.8209 44.5261 23.1125 44.4606 23.4366L44.0976 25.2365C43.7662 25.3936 43.4462 25.5734 43.1399 25.7745L41.3934 25.19C41.0775 25.084 40.7342 25.0898 40.4221 25.2062C40.11 25.3227 39.8483 25.5428 39.6816 25.8288L37.9784 28.7499C37.8115 29.0359 37.7499 29.3703 37.804 29.6962C37.8581 30.0222 38.0245 30.3195 38.275 30.5376L39.6686 31.7502C39.6563 31.9303 39.6412 32.1089 39.6412 32.2911C39.6412 32.4755 39.6484 32.6577 39.6614 32.8384L38.2757 34.0446C38.025 34.2625 37.8583 34.5598 37.8039 34.8857C37.7496 35.2117 37.811 35.5462 37.9777 35.8324L39.6809 38.7534C39.8475 39.0399 40.1094 39.2603 40.4218 39.3769C40.7343 39.4936 41.078 39.4992 41.3942 39.3929L43.1508 38.8041C43.4534 39.0063 43.7697 39.1875 44.0976 39.3464L44.4606 41.1456C44.5261 41.4697 44.7029 41.7613 44.9611 41.9708C45.2193 42.1803 45.5428 42.2948 45.8766 42.2946H49.0232V40.8656H45.8766L45.3642 38.3289C44.6554 38.0682 43.9974 37.6882 43.4192 37.2057L40.9316 38.0388L39.2284 35.1178L41.195 33.4065C41.0604 32.6676 41.0587 31.9109 41.1899 31.1714L39.2284 29.4644L40.9316 26.5434L43.4048 27.3722C43.987 26.889 44.6502 26.5103 45.3642 26.2533L45.8766 23.7167H49.283L49.7954 26.2533C50.5042 26.514 51.1622 26.894 51.7403 27.3765L54.228 26.5434L55.9312 29.4644L53.9119 31.2164L54.8631 32.2911L56.8838 30.5376C57.1346 30.3197 57.3013 30.0224 57.3556 29.6965C57.4099 29.3706 57.3486 29.036 57.1819 28.7499Z" fill="white"/>
<path d="M52.7516 39.5603L50.887 37.7998L49.8718 38.7582L52.7516 41.477L57.7913 36.7191L56.7761 35.7607L52.7516 39.5603Z" fill="white"/>
</g>
<defs>
<filter id="filter0_d_94_1920" x="0" y="0.5" width="96" height="96" filterUnits="userSpaceOnUse" color-interpolation-filters="sRGB">
<feFlood flood-opacity="0" result="BackgroundImageFix"/>
<feColorMatrix in="SourceAlpha" type="matrix" values="0 0 0 0 0 0 0 0 0 0 0 0 0 0 0 0 0 0 127 0" result="hardAlpha"/>
<feOffset dy="16"/>
<feGaussianBlur stdDeviation="12"/>
<feComposite in2="hardAlpha" operator="out"/>
<feColorMatrix type="matrix" values="0 0 0 0 0.443137 0 0 0 0 0.482353 0 0 0 0 0.741176 0 0 0 0.1 0"/>
<feBlend mode="normal" in2="BackgroundImageFix" result="effect1_dropShadow_94_1920"/>
<feBlend mode="normal" in="SourceGraphic" in2="effect1_dropShadow_94_1920" result="shape"/>
</filter>
<filter id="filter1_d_94_1920" x="21.1816" y="9.37412" width="53.2127" height="53.2132" filterUnits="userSpaceOnUse" color-interpolation-filters="sRGB">
<feFlood flood-opacity="0" result="BackgroundImageFix"/>
<feColorMatrix in="SourceAlpha" type="matrix" values="0 0 0 0 0 0 0 0 0 0 0 0 0 0 0 0 0 0 127 0" result="hardAlpha"/>
<feOffset dy="3.68957"/>
<feGaussianBlur stdDeviation="8.30152"/>
<feComposite in2="hardAlpha" operator="out"/>
<feColorMatrix type="matrix" values="0 0 0 0 0.4 0 0 0 0 0.427451 0 0 0 0 0.933333 0 0 0 0.2 0"/>
<feBlend mode="normal" in2="BackgroundImageFix" result="effect1_dropShadow_94_1920"/>
<feBlend mode="normal" in="SourceGraphic" in2="effect1_dropShadow_94_1920" result="shape"/>
</filter>
</defs>
</svg>
