<svg width="40" height="40" viewBox="0 0 40 40" fill="none" xmlns="http://www.w3.org/2000/svg">
<circle cx="20" cy="20" r="19.5" stroke="white"/>
<path d="M29 22.4227V29H25.1419V22.863C25.1419 21.3209 24.5836 20.2691 23.1876 20.2691C22.1216 20.2691 21.4867 20.9787 21.208 21.6641C21.1061 21.9092 21.08 22.2506 21.08 22.5938V29H17.2201C17.2201 29 17.2724 18.6068 17.2201 17.5291H21.08V19.1549L21.0547 19.1924H21.08V19.1549C21.5922 18.375 22.5076 17.2599 24.5575 17.2599C27.0962 17.2599 29 18.9 29 22.4227ZM13.1834 12C11.864 12 11 12.8557 11 13.9815C11 15.0823 11.8387 15.9639 13.1329 15.9639H13.1581C14.5046 15.9639 15.3406 15.0823 15.3406 13.9815C15.3172 12.8557 14.5046 12 13.1834 12ZM11.2291 29H15.0872V17.5291H11.2291V29Z" fill="white"/>
</svg>
