<svg width="31" height="27" viewBox="0 0 31 27" fill="none" xmlns="http://www.w3.org/2000/svg">
<path d="M26.3681 23.0581H8.41391C7.19328 23.0567 6.02303 22.5712 5.15992 21.7081C4.29679 20.8449 3.81129 19.6747 3.80994 18.454V2.76416H6.51681V18.454C6.51735 18.957 6.71741 19.4392 7.07305 19.7949C7.42872 20.1506 7.91091 20.3506 8.41391 20.3512H26.3681V23.0581Z" fill="#17B091"/>
<path d="M15.8148 15.9007L10.9736 15.9028V6.93457H8.26672V17.2583C8.26786 17.6172 8.41111 17.9611 8.66513 18.2147C8.91912 18.4684 9.26323 18.6111 9.6222 18.6117L22.7319 18.6034L15.8148 15.9007ZM23.1671 14.8263L22.9839 14.7555L15.4774 11.8298V9.65612L23.1671 9.65408V13.7872L25.874 14.8407V8.30064C25.8738 7.94173 25.7312 7.59759 25.4774 7.34381C25.2236 7.09003 24.8795 6.94739 24.5205 6.94721L14.124 6.94922C13.765 6.94922 13.4208 7.09183 13.1669 7.34564C12.9131 7.59945 12.7705 7.94371 12.7705 8.30268V12.7544C12.7698 13.0272 12.8518 13.2939 13.0057 13.5191C13.1596 13.7444 13.3782 13.9177 13.6326 14.0162L17.9699 15.707L18.4675 15.9007L25.089 18.4783L25.4159 18.6054L26.3695 18.9761V16.0777L23.1671 14.8263Z" fill="#2F2F3B"/>
<path d="M10.9728 2.76416H8.26785V5.46901H10.9728V2.76416Z" fill="#2F2F3B"/>
</svg>
