<svg width="96" height="97" viewBox="0 0 96 97" fill="none" xmlns="http://www.w3.org/2000/svg">
<g filter="url(#filter0_d_94_1948)">
<path d="M24 16.5C24 12.0817 27.5817 8.5 32 8.5H64C68.4183 8.5 72 12.0817 72 16.5V48.5C72 52.9183 68.4183 56.5 64 56.5H32C27.5817 56.5 24 52.9183 24 48.5V16.5Z" fill="#A87FF8"/>
<path d="M24.5 16.5C24.5 12.3579 27.8579 9 32 9H64C68.1421 9 71.5 12.3579 71.5 16.5V48.5C71.5 52.6421 68.1421 56 64 56H32C27.8579 56 24.5 52.6421 24.5 48.5V16.5Z" stroke="#A87FF8"/>
</g>
<path d="M42.8287 33.1343L42.7849 33.228L42.8569 33.3022C43.1805 33.6359 43.405 34.2056 43.405 34.7809C43.405 36.0421 42.405 37.0666 41.1932 37.0666C39.9813 37.0666 38.9813 36.0421 38.9813 34.7809C38.9813 33.5198 39.9813 32.4953 41.1932 32.4953H41.4294H41.5249L41.5653 32.4087L43.1005 29.1206L43.1442 29.0269L43.0723 28.9527C42.7487 28.619 42.5241 28.0493 42.5241 27.4739C42.5241 26.2128 43.5241 25.1883 44.736 25.1883C45.9478 25.1883 46.9478 26.2128 46.9478 27.4739V27.7175V27.8105L47.0311 27.8519L50.2196 29.435L50.3178 29.4838L50.394 29.4051C50.7173 29.0718 51.2675 28.8418 51.8216 28.8418H52.0577H52.1533L52.1937 28.7552L53.7289 25.4671L53.7726 25.3734L53.7006 25.2992C53.3771 24.9655 53.1525 24.3958 53.1525 23.8204C53.1525 22.5593 54.1525 21.5348 55.3643 21.5348C56.5762 21.5348 57.5762 22.5593 57.5762 23.8204C57.5762 25.0816 56.5762 26.1061 55.3643 26.1061H55.1282H55.0327L54.9922 26.1926L53.457 29.4808L53.4196 29.5609L53.4716 29.6325C53.8162 30.1062 54.0334 30.5626 54.0334 31.1274C54.0334 32.3886 53.0334 33.4131 51.8216 33.4131C50.6097 33.4131 49.6097 32.3886 49.6097 31.1274V31.0057V30.9158L49.5304 30.8734L46.3419 29.1684L46.2422 29.1151L46.1635 29.1963C45.8403 29.5296 45.2901 29.7596 44.736 29.7596H44.4998H44.4043L44.3639 29.8462L42.8287 33.1343ZM37.8004 41.0201H58.7571V43.1558H37.8004V41.0201Z" fill="white" stroke="#FBF3F9" stroke-width="0.3"/>
<defs>
<filter id="filter0_d_94_1948" x="0" y="0.5" width="96" height="96" filterUnits="userSpaceOnUse" color-interpolation-filters="sRGB">
<feFlood flood-opacity="0" result="BackgroundImageFix"/>
<feColorMatrix in="SourceAlpha" type="matrix" values="0 0 0 0 0 0 0 0 0 0 0 0 0 0 0 0 0 0 127 0" result="hardAlpha"/>
<feOffset dy="16"/>
<feGaussianBlur stdDeviation="12"/>
<feComposite in2="hardAlpha" operator="out"/>
<feColorMatrix type="matrix" values="0 0 0 0 0.654902 0 0 0 0 0.501961 0 0 0 0 0.972549 0 0 0 0.1 0"/>
<feBlend mode="normal" in2="BackgroundImageFix" result="effect1_dropShadow_94_1948"/>
<feBlend mode="normal" in="SourceGraphic" in2="effect1_dropShadow_94_1948" result="shape"/>
</filter>
</defs>
</svg>
