<svg width="109" height="108" viewBox="0 0 109 108" fill="none" xmlns="http://www.w3.org/2000/svg">
<g filter="url(#filter0_d_2543_91)">
<rect x="27.5" y="9" width="54" height="54" rx="9" fill="#AAD97D"/>
<rect x="29.1848" y="10.6848" width="50.6305" height="50.6305" rx="7.31523" stroke="#AAD97D" stroke-width="3.36954"/>
</g>
<g filter="url(#filter1_d_2543_91)">
<path d="M45.1352 31.1632L45.1352 31.1631C45.1348 30.791 45.2079 30.4224 45.3501 30.0786C45.4923 29.7347 45.701 29.4223 45.9641 29.1591C46.2272 28.896 46.5396 28.6874 46.8835 28.5451C47.2274 28.4029 47.5959 28.3299 47.968 28.3303L47.9684 28.3303C48.3405 28.3299 48.709 28.4029 49.0529 28.5451C49.3967 28.6874 49.7092 28.896 49.9723 29.1591C50.2354 29.4223 50.444 29.7347 50.5863 30.0786C50.7285 30.4224 50.8015 30.791 50.8011 31.1631V31.1632C50.8011 31.6916 50.6239 32.2969 50.346 32.9173C50.0691 33.5353 49.6983 34.1549 49.3249 34.7083C48.9519 35.2611 48.5785 35.7446 48.2982 36.0899C48.1627 36.2569 48.0491 36.3913 47.9682 36.4854C47.8872 36.3913 47.7737 36.2569 47.6382 36.0899C47.3579 35.7446 46.9845 35.2611 46.6114 34.7083C46.238 34.1549 45.8672 33.5353 45.5904 32.9173C45.3124 32.2969 45.1352 31.6916 45.1352 31.1632ZM47.9682 32.4209H47.9683C48.3018 32.4206 48.6214 32.288 48.8572 32.0522C49.0929 31.8165 49.2255 31.4968 49.2258 31.1634V31.1632C49.2258 30.9145 49.1521 30.6714 49.0139 30.4645C48.8757 30.2577 48.6793 30.0965 48.4495 30.0013C48.2197 29.9061 47.9668 29.8812 47.7228 29.9298C47.4789 29.9783 47.2548 30.0981 47.0789 30.274C46.903 30.4498 46.7832 30.6739 46.7347 30.9179C46.6862 31.1619 46.7111 31.4147 46.8063 31.6445C46.9015 31.8743 47.0626 32.0708 47.2695 32.2089C47.4763 32.3471 47.7194 32.4209 47.9682 32.4209Z" fill="white" stroke="white" stroke-width="0.363192"/>
<path d="M62.9785 35.0256V35.2072H63.1103C63.4395 35.4133 63.6956 35.7184 63.8412 36.0794C63.9929 36.4554 64.0163 36.8709 63.9078 37.2616C63.7993 37.6522 63.5649 37.9961 63.241 38.24C62.9172 38.4839 62.5219 38.6141 62.1165 38.6104C61.7111 38.6068 61.3182 38.4695 60.9987 38.2198C60.6793 37.9701 60.4512 37.6221 60.3497 37.2295C60.2483 36.837 60.2791 36.422 60.4376 36.0488C60.596 35.6756 60.8731 35.3651 61.226 35.1654L61.3181 35.1133V35.0074V30.6804C61.3221 29.8354 60.9937 29.0228 60.4038 28.4178C59.8139 27.8127 59.0096 27.4639 58.1647 27.4466C57.3198 27.4292 56.5019 27.7448 55.8877 28.3252C55.2734 28.9056 54.912 29.7043 54.8814 30.5488L54.8813 30.5488V30.5554V30.8049V30.8054L54.8712 32.6974V32.6984V40.6413H54.8661V40.8229V41.6354H54.864L54.8641 41.8171C54.8647 42.8423 54.4581 43.8258 53.7336 44.5511C53.0091 45.2765 52.0262 45.6844 51.001 45.685C49.9758 45.6857 48.9923 45.279 48.267 44.5545C47.5416 43.8301 47.1337 42.8471 47.1331 41.8219L47.133 41.6405H47.1311V39.9791H48.7924V41.7643V41.8018V41.9459H48.7971C48.832 42.4784 49.059 42.9822 49.4386 43.3618C49.8523 43.7755 50.4135 44.008 50.9986 44.008C51.5837 44.008 52.1448 43.7755 52.5586 43.3618C52.9391 42.9812 53.1663 42.4759 53.2003 41.9419H53.2088V41.7603V31.6872L53.2189 30.8075H53.2189V30.8054V30.5573C53.2569 29.3969 53.7078 28.288 54.4906 27.4303C55.2739 26.5719 56.3381 26.0216 57.4914 25.8784C58.6447 25.7353 59.8111 26.0087 60.7806 26.6495C61.7501 27.2904 62.4588 28.2564 62.779 29.3735L62.779 29.3735L62.7795 29.3751C62.9046 29.797 62.9715 30.2341 62.9785 30.6742V35.0256Z" fill="white" stroke="white" stroke-width="0.363192"/>
</g>
<defs>
<filter id="filter0_d_2543_91" x="0.5" y="0" width="108" height="108" filterUnits="userSpaceOnUse" color-interpolation-filters="sRGB">
<feFlood flood-opacity="0" result="BackgroundImageFix"/>
<feColorMatrix in="SourceAlpha" type="matrix" values="0 0 0 0 0 0 0 0 0 0 0 0 0 0 0 0 0 0 127 0" result="hardAlpha"/>
<feOffset dy="18"/>
<feGaussianBlur stdDeviation="13.5"/>
<feComposite in2="hardAlpha" operator="out"/>
<feColorMatrix type="matrix" values="0 0 0 0 0.32549 0 0 0 0 0.690196 0 0 0 0 0.988235 0 0 0 0.1 0"/>
<feBlend mode="normal" in2="BackgroundImageFix" result="effect1_dropShadow_2543_91"/>
<feBlend mode="normal" in="SourceGraphic" in2="effect1_dropShadow_2543_91" result="shape"/>
</filter>
<filter id="filter1_d_2543_91" x="26.2752" y="11.132" width="56.5597" height="57.5639" filterUnits="userSpaceOnUse" color-interpolation-filters="sRGB">
<feFlood flood-opacity="0" result="BackgroundImageFix"/>
<feColorMatrix in="SourceAlpha" type="matrix" values="0 0 0 0 0 0 0 0 0 0 0 0 0 0 0 0 0 0 127 0" result="hardAlpha"/>
<feOffset dy="4.15076"/>
<feGaussianBlur stdDeviation="9.33921"/>
<feComposite in2="hardAlpha" operator="out"/>
<feColorMatrix type="matrix" values="0 0 0 0 0.4 0 0 0 0 0.427451 0 0 0 0 0.933333 0 0 0 0.2 0"/>
<feBlend mode="normal" in2="BackgroundImageFix" result="effect1_dropShadow_2543_91"/>
<feBlend mode="normal" in="SourceGraphic" in2="effect1_dropShadow_2543_91" result="shape"/>
</filter>
</defs>
</svg>
